<svg width="217" height="55" viewBox="0 0 217 55" fill="none" xmlns="http://www.w3.org/2000/svg">
<path d="M0 15.2441C0 8.27775 5.46099 2.55426 12.4224 2.29129C33.5573 1.49292 77.2527 0 108.476 0C139.703 0 183.432 1.4933 204.577 2.2916C211.539 2.55442 217 8.27798 217 15.2445V38.6059C217 45.4585 211.71 51.1278 204.87 51.5261C184.206 52.7292 141.476 54.9837 111.166 54.9999C79.0448 55.0171 33.6407 52.7061 12.1633 51.5008C5.3094 51.1162 0 45.4409 0 38.5762V15.2441Z" fill="#D3A57D"/>
<path d="M13.4918 34.4146H10.6793L15.8 19.8691H19.0529L24.1807 34.4146H21.3682L17.4833 22.8521H17.3696L13.4918 34.4146ZM13.5841 28.7114H21.2546V30.8279H13.5841V28.7114ZM30.4094 34.6276C29.3204 34.6276 28.3853 34.3885 27.604 33.9103C26.8275 33.4321 26.2285 32.7716 25.8071 31.9288C25.3905 31.0812 25.1821 30.1058 25.1821 29.0026C25.1821 27.8947 25.3952 26.9169 25.8213 26.0694C26.2475 25.2171 26.8488 24.5542 27.6253 24.0807C28.4066 23.6025 29.3299 23.3634 30.3952 23.3634C31.2806 23.3634 32.0642 23.5268 32.7461 23.8535C33.4326 24.1754 33.9795 24.6324 34.3867 25.2242C34.7939 25.8113 35.0259 26.4979 35.0827 27.2839H32.6253C32.5259 26.7583 32.2891 26.3203 31.9151 25.9699C31.5458 25.6148 31.051 25.4373 30.4307 25.4373C29.9051 25.4373 29.4435 25.5793 29.0458 25.8634C28.648 26.1428 28.3379 26.5452 28.1154 27.0708C27.8976 27.5964 27.7887 28.2261 27.7887 28.96C27.7887 29.7034 27.8976 30.3426 28.1154 30.8776C28.3332 31.4079 28.6386 31.8175 29.0316 32.1063C29.4293 32.3904 29.8957 32.5324 30.4307 32.5324C30.8095 32.5324 31.148 32.4614 31.4463 32.3194C31.7494 32.1726 32.0027 31.9619 32.2063 31.6873C32.4099 31.4127 32.5496 31.0788 32.6253 30.6859H35.0827C35.0211 31.4576 34.7939 32.1418 34.4009 32.7384C34.0079 33.3303 33.4728 33.7943 32.7958 34.1305C32.1187 34.4619 31.3232 34.6276 30.4094 34.6276ZM39.7649 28.0225V34.4146H37.1938V19.8691H39.7081V25.3592H39.8359C40.0916 24.7436 40.4869 24.2583 41.022 23.9032C41.5617 23.5433 42.2483 23.3634 43.0816 23.3634C43.8392 23.3634 44.4997 23.522 45.0632 23.8393C45.6266 24.1565 46.0622 24.6205 46.37 25.2313C46.6825 25.8421 46.8387 26.5878 46.8387 27.4685V34.4146H44.2677V27.8663C44.2677 27.1324 44.0783 26.5618 43.6995 26.1546C43.3255 25.7427 42.7999 25.5367 42.1228 25.5367C41.6683 25.5367 41.2611 25.6361 40.9012 25.835C40.5461 26.0291 40.2668 26.3109 40.0632 26.6802C39.8643 27.0495 39.7649 27.4969 39.7649 28.0225ZM54.289 34.6276C53.1953 34.6276 52.2507 34.4003 51.4552 33.9458C50.6645 33.4865 50.0561 32.8378 49.6299 31.9998C49.2038 31.157 48.9907 30.165 48.9907 29.0239C48.9907 27.9018 49.2038 26.9169 49.6299 26.0694C50.0608 25.2171 50.6621 24.5542 51.4339 24.0807C52.2057 23.6025 53.1124 23.3634 54.1541 23.3634C54.8264 23.3634 55.4609 23.4723 56.0575 23.6901C56.6588 23.9032 57.1891 24.2346 57.6484 24.6844C58.1124 25.1342 58.477 25.7072 58.7421 26.4032C59.0073 27.0945 59.1399 27.9183 59.1399 28.8748V29.6631H50.1981V27.9302H56.6754C56.6706 27.4378 56.5641 26.9998 56.3558 26.6163C56.1474 26.228 55.8563 25.9226 55.4822 25.7001C55.1129 25.4775 54.682 25.3663 54.1896 25.3663C53.664 25.3663 53.2024 25.4941 52.8046 25.7498C52.4069 26.0007 52.0968 26.3322 51.8742 26.7441C51.6564 27.1513 51.5452 27.5987 51.5404 28.0864V29.5992C51.5404 30.2337 51.6564 30.7782 51.8885 31.2327C52.1205 31.6825 52.4448 32.0282 52.8615 32.2697C53.2781 32.5064 53.7658 32.6248 54.3245 32.6248C54.6986 32.6248 55.0371 32.5727 55.3402 32.4685C55.6432 32.3596 55.906 32.201 56.1285 31.9927C56.351 31.7843 56.5191 31.5263 56.6328 31.2185L59.0333 31.4884C58.8818 32.1229 58.593 32.6769 58.1669 33.1503C57.7455 33.6191 57.2057 33.9837 56.5475 34.2441C55.8894 34.4998 55.1366 34.6276 54.289 34.6276ZM66.7624 23.5055V25.4941H60.4911V23.5055H66.7624ZM62.0394 20.8918H64.6104V31.1333C64.6104 31.4789 64.6625 31.7441 64.7666 31.9288C64.8755 32.1087 65.0176 32.2318 65.1928 32.2981C65.368 32.3644 65.5621 32.3975 65.7752 32.3975C65.9362 32.3975 66.0829 32.3857 66.2155 32.362C66.3528 32.3383 66.457 32.317 66.528 32.2981L66.9612 34.308C66.8239 34.3554 66.6274 34.4074 66.3718 34.4643C66.1208 34.5211 65.813 34.5542 65.4485 34.5637C64.8045 34.5826 64.2245 34.4856 63.7084 34.2725C63.1923 34.0547 62.7827 33.7185 62.4797 33.264C62.1814 32.8094 62.0346 32.2413 62.0394 31.5594V20.8918ZM73.625 34.6276C72.5312 34.6276 71.5866 34.4003 70.7911 33.9458C70.0004 33.4865 69.392 32.8378 68.9659 31.9998C68.5397 31.157 68.3267 30.165 68.3267 29.0239C68.3267 27.9018 68.5397 26.9169 68.9659 26.0694C69.3967 25.2171 69.9981 24.5542 70.7698 24.0807C71.5416 23.6025 72.4483 23.3634 73.49 23.3634C74.1624 23.3634 74.7968 23.4723 75.3934 23.6901C75.9947 23.9032 76.5251 24.2346 76.9843 24.6844C77.4483 25.1342 77.8129 25.7072 78.0781 26.4032C78.3432 27.0945 78.4758 27.9183 78.4758 28.8748V29.6631H69.534V27.9302H76.0113C76.0066 27.4378 75.9001 26.9998 75.6917 26.6163C75.4834 26.228 75.1922 25.9226 74.8181 25.7001C74.4488 25.4775 74.0179 25.3663 73.5255 25.3663C73 25.3663 72.5383 25.4941 72.1406 25.7498C71.7429 26.0007 71.4327 26.3322 71.2102 26.7441C70.9924 27.1513 70.8811 27.5987 70.8764 28.0864V29.5992C70.8764 30.2337 70.9924 30.7782 71.2244 31.2327C71.4564 31.6825 71.7807 32.0282 72.1974 32.2697C72.6141 32.5064 73.1018 32.6248 73.6605 32.6248C74.0345 32.6248 74.3731 32.5727 74.6761 32.4685C74.9791 32.3596 75.2419 32.201 75.4644 31.9927C75.687 31.7843 75.8551 31.5263 75.9687 31.2185L78.3693 31.4884C78.2178 32.1229 77.9289 32.6769 77.5028 33.1503C77.0814 33.6191 76.5416 33.9837 75.8835 34.2441C75.2253 34.4998 74.4725 34.6276 73.625 34.6276ZM80.6509 34.4146V23.5055H83.1438V25.3236H83.2574C83.4563 24.6939 83.7972 24.2086 84.2801 23.8677C84.7678 23.522 85.3242 23.3492 85.9492 23.3492C86.0912 23.3492 86.2498 23.3563 86.425 23.3705C86.605 23.38 86.7541 23.3966 86.8725 23.4202V25.7853C86.7636 25.7474 86.5907 25.7143 86.354 25.6859C86.122 25.6527 85.8971 25.6361 85.6793 25.6361C85.2105 25.6361 84.7891 25.7379 84.4151 25.9415C84.0458 26.1404 83.7546 26.4174 83.5415 26.7725C83.3284 27.1276 83.2219 27.5372 83.2219 28.0012V34.4146H80.6509ZM93.5415 34.4146V23.5055H95.9989V25.3592H96.1267C96.354 24.7342 96.7304 24.2465 97.256 23.8961C97.7816 23.541 98.4089 23.3634 99.1381 23.3634C99.8767 23.3634 100.499 23.5433 101.006 23.9032C101.517 24.2583 101.877 24.7436 102.086 25.3592H102.199C102.441 24.7531 102.848 24.2701 103.421 23.9103C103.998 23.5457 104.683 23.3634 105.473 23.3634C106.477 23.3634 107.296 23.6806 107.931 24.3151C108.565 24.9496 108.882 25.8753 108.882 27.0921V34.4146H106.304V27.4898C106.304 26.8128 106.124 26.318 105.765 26.0055C105.405 25.6882 104.964 25.5296 104.443 25.5296C103.823 25.5296 103.338 25.7237 102.988 26.112C102.642 26.4955 102.469 26.995 102.469 27.6106V34.4146H99.9478V27.3833C99.9478 26.8199 99.7773 26.37 99.4364 26.0339C99.1002 25.6977 98.6599 25.5296 98.1154 25.5296C97.7461 25.5296 97.4099 25.6243 97.1068 25.8137C96.8038 25.9984 96.5623 26.2611 96.3824 26.6021C96.2025 26.9382 96.1125 27.3312 96.1125 27.781V34.4146H93.5415ZM114.63 34.6347C113.939 34.6347 113.316 34.5116 112.762 34.2654C112.213 34.0145 111.777 33.6451 111.455 33.1574C111.138 32.6698 110.979 32.0684 110.979 31.3535C110.979 30.7379 111.093 30.2289 111.32 29.8265C111.548 29.424 111.858 29.1021 112.251 28.8606C112.644 28.6191 113.086 28.4368 113.579 28.3137C114.076 28.1859 114.59 28.0935 115.12 28.0367C115.759 27.9704 116.278 27.9112 116.675 27.8592C117.073 27.8023 117.362 27.7171 117.542 27.6035C117.727 27.4851 117.819 27.3028 117.819 27.0566V27.014C117.819 26.4789 117.66 26.0646 117.343 25.7711C117.026 25.4775 116.569 25.3307 115.972 25.3307C115.343 25.3307 114.843 25.4681 114.474 25.7427C114.109 26.0173 113.863 26.3416 113.735 26.7157L111.334 26.3748C111.524 25.7119 111.836 25.1579 112.272 24.7128C112.708 24.263 113.24 23.9269 113.87 23.7043C114.5 23.4771 115.196 23.3634 115.958 23.3634C116.484 23.3634 117.007 23.425 117.528 23.5481C118.048 23.6712 118.524 23.8748 118.955 24.1589C119.386 24.4382 119.732 24.8194 119.992 25.3023C120.257 25.7853 120.39 26.389 120.39 27.1134V34.4146H117.918V32.916H117.833C117.677 33.219 117.457 33.5031 117.173 33.7682C116.893 34.0287 116.54 34.2394 116.114 34.4003C115.693 34.5566 115.198 34.6347 114.63 34.6347ZM115.298 32.7455C115.814 32.7455 116.261 32.6437 116.64 32.4401C117.019 32.2318 117.31 31.9572 117.513 31.6163C117.722 31.2753 117.826 30.9037 117.826 30.5012V29.2157C117.745 29.282 117.608 29.3435 117.414 29.4003C117.225 29.4572 117.012 29.5069 116.775 29.5495C116.538 29.5921 116.304 29.63 116.072 29.6631C115.84 29.6963 115.638 29.7247 115.468 29.7484C115.084 29.8004 114.741 29.8857 114.438 30.004C114.135 30.1224 113.896 30.2881 113.721 30.5012C113.546 30.7095 113.458 30.9794 113.458 31.3109C113.458 31.7843 113.631 32.1418 113.977 32.3833C114.322 32.6248 114.763 32.7455 115.298 32.7455ZM122.975 34.4146V23.5055H125.546V34.4146H122.975ZM124.268 21.9572C123.861 21.9572 123.51 21.8222 123.217 21.5523C122.923 21.2777 122.776 20.9486 122.776 20.5651C122.776 20.1769 122.923 19.8478 123.217 19.5779C123.51 19.3033 123.861 19.166 124.268 19.166C124.68 19.166 125.03 19.3033 125.319 19.5779C125.612 19.8478 125.759 20.1769 125.759 20.5651C125.759 20.9486 125.612 21.2777 125.319 21.5523C125.03 21.8222 124.68 21.9572 124.268 21.9572ZM130.761 28.0225V34.4146H128.19V23.5055H130.647V25.3592H130.775C131.026 24.7484 131.426 24.263 131.975 23.9032C132.529 23.5433 133.214 23.3634 134.028 23.3634C134.781 23.3634 135.437 23.5244 135.995 23.8464C136.559 24.1683 136.994 24.6347 137.302 25.2455C137.615 25.8563 137.769 26.5973 137.764 27.4685V34.4146H135.193V27.8663C135.193 27.1371 135.003 26.5665 134.625 26.1546C134.251 25.7427 133.732 25.5367 133.069 25.5367C132.619 25.5367 132.219 25.6361 131.869 25.835C131.523 26.0291 131.251 26.3109 131.052 26.6802C130.858 27.0495 130.761 27.4969 130.761 28.0225ZM145.825 23.5055V25.4941H139.554V23.5055H145.825ZM141.102 20.8918H143.673V31.1333C143.673 31.4789 143.725 31.7441 143.829 31.9288C143.938 32.1087 144.08 32.2318 144.255 32.2981C144.43 32.3644 144.625 32.3975 144.838 32.3975C144.999 32.3975 145.145 32.3857 145.278 32.362C145.415 32.3383 145.519 32.317 145.591 32.2981L146.024 34.308C145.886 34.3554 145.69 34.4074 145.434 34.4643C145.183 34.5211 144.876 34.5542 144.511 34.5637C143.867 34.5826 143.287 34.4856 142.771 34.2725C142.255 34.0547 141.845 33.7185 141.542 33.264C141.244 32.8094 141.097 32.2413 141.102 31.5594V20.8918ZM152.687 34.6276C151.594 34.6276 150.649 34.4003 149.854 33.9458C149.063 33.4865 148.455 32.8378 148.028 31.9998C147.602 31.157 147.389 30.165 147.389 29.0239C147.389 27.9018 147.602 26.9169 148.028 26.0694C148.459 25.2171 149.061 24.5542 149.832 24.0807C150.604 23.6025 151.511 23.3634 152.553 23.3634C153.225 23.3634 153.859 23.4723 154.456 23.6901C155.057 23.9032 155.588 24.2346 156.047 24.6844C156.511 25.1342 156.875 25.7072 157.141 26.4032C157.406 27.0945 157.538 27.9183 157.538 28.8748V29.6631H148.597V27.9302H155.074C155.069 27.4378 154.963 26.9998 154.754 26.6163C154.546 26.228 154.255 25.9226 153.881 25.7001C153.511 25.4775 153.08 25.3663 152.588 25.3663C152.062 25.3663 151.601 25.4941 151.203 25.7498C150.805 26.0007 150.495 26.3322 150.273 26.7441C150.055 27.1513 149.944 27.5987 149.939 28.0864V29.5992C149.939 30.2337 150.055 30.7782 150.287 31.2327C150.519 31.6825 150.843 32.0282 151.26 32.2697C151.677 32.5064 152.164 32.6248 152.723 32.6248C153.097 32.6248 153.436 32.5727 153.739 32.4685C154.042 32.3596 154.304 32.201 154.527 31.9927C154.749 31.7843 154.918 31.5263 155.031 31.2185L157.432 31.4884C157.28 32.1229 156.991 32.6769 156.565 33.1503C156.144 33.6191 155.604 33.9837 154.946 34.2441C154.288 34.4998 153.535 34.6276 152.687 34.6276ZM162.284 28.0225V34.4146H159.713V23.5055H162.171V25.3592H162.299C162.55 24.7484 162.95 24.263 163.499 23.9032C164.053 23.5433 164.737 23.3634 165.551 23.3634C166.304 23.3634 166.96 23.5244 167.519 23.8464C168.082 24.1683 168.518 24.6347 168.826 25.2455C169.138 25.8563 169.292 26.5973 169.287 27.4685V34.4146H166.716V27.8663C166.716 27.1371 166.527 26.5665 166.148 26.1546C165.774 25.7427 165.256 25.5367 164.593 25.5367C164.143 25.5367 163.743 25.6361 163.392 25.835C163.047 26.0291 162.774 26.3109 162.576 26.6802C162.381 27.0495 162.284 27.4969 162.284 28.0225ZM175.04 34.6347C174.349 34.6347 173.726 34.5116 173.172 34.2654C172.623 34.0145 172.187 33.6451 171.865 33.1574C171.548 32.6698 171.39 32.0684 171.39 31.3535C171.39 30.7379 171.503 30.2289 171.73 29.8265C171.958 29.424 172.268 29.1021 172.661 28.8606C173.054 28.6191 173.497 28.4368 173.989 28.3137C174.486 28.1859 175 28.0935 175.53 28.0367C176.169 27.9704 176.688 27.9112 177.086 27.8592C177.483 27.8023 177.772 27.7171 177.952 27.6035C178.137 27.4851 178.229 27.3028 178.229 27.0566V27.014C178.229 26.4789 178.07 26.0646 177.753 25.7711C177.436 25.4775 176.979 25.3307 176.382 25.3307C175.753 25.3307 175.253 25.4681 174.884 25.7427C174.519 26.0173 174.273 26.3416 174.145 26.7157L171.745 26.3748C171.934 25.7119 172.247 25.1579 172.682 24.7128C173.118 24.263 173.65 23.9269 174.28 23.7043C174.91 23.4771 175.606 23.3634 176.368 23.3634C176.894 23.3634 177.417 23.425 177.938 23.5481C178.459 23.6712 178.935 23.8748 179.365 24.1589C179.796 24.4382 180.142 24.8194 180.402 25.3023C180.667 25.7853 180.8 26.389 180.8 27.1134V34.4146H178.328V32.916H178.243C178.087 33.219 177.867 33.5031 177.583 33.7682C177.303 34.0287 176.951 34.2394 176.524 34.4003C176.103 34.5566 175.608 34.6347 175.04 34.6347ZM175.708 32.7455C176.224 32.7455 176.671 32.6437 177.05 32.4401C177.429 32.2318 177.72 31.9572 177.924 31.6163C178.132 31.2753 178.236 30.9037 178.236 30.5012V29.2157C178.156 29.282 178.018 29.3435 177.824 29.4003C177.635 29.4572 177.422 29.5069 177.185 29.5495C176.948 29.5921 176.714 29.63 176.482 29.6631C176.25 29.6963 176.049 29.7247 175.878 29.7484C175.495 29.8004 175.151 29.8857 174.848 30.004C174.545 30.1224 174.306 30.2881 174.131 30.5012C173.956 30.7095 173.868 30.9794 173.868 31.3109C173.868 31.7843 174.041 32.1418 174.387 32.3833C174.732 32.6248 175.173 32.7455 175.708 32.7455ZM185.956 28.0225V34.4146H183.385V23.5055H185.843V25.3592H185.97C186.221 24.7484 186.622 24.263 187.171 23.9032C187.725 23.5433 188.409 23.3634 189.223 23.3634C189.976 23.3634 190.632 23.5244 191.191 23.8464C191.754 24.1683 192.19 24.6347 192.497 25.2455C192.81 25.8563 192.964 26.5973 192.959 27.4685V34.4146H190.388V27.8663C190.388 27.1371 190.199 26.5665 189.82 26.1546C189.446 25.7427 188.927 25.5367 188.265 25.5367C187.815 25.5367 187.415 25.6361 187.064 25.835C186.719 26.0291 186.446 26.3109 186.247 26.6802C186.053 27.0495 185.956 27.4969 185.956 28.0225ZM201.02 23.5055V25.4941H194.749V23.5055H201.02ZM196.297 20.8918H198.868V31.1333C198.868 31.4789 198.92 31.7441 199.024 31.9288C199.133 32.1087 199.275 32.2318 199.451 32.2981C199.626 32.3644 199.82 32.3975 200.033 32.3975C200.194 32.3975 200.341 32.3857 200.473 32.362C200.611 32.3383 200.715 32.317 200.786 32.2981L201.219 34.308C201.082 34.3554 200.885 34.4074 200.63 34.4643C200.379 34.5211 200.071 34.5542 199.706 34.5637C199.062 34.5826 198.482 34.4856 197.966 34.2725C197.45 34.0547 197.041 33.7185 196.738 33.264C196.439 32.8094 196.292 32.2413 196.297 31.5594V20.8918Z" fill="#1E1E1E"/>
</svg>
